<svg width="19" height="19" viewBox="0 0 19 19" fill="none" xmlns="http://www.w3.org/2000/svg">
<g id="ph:dots-three-outline-vertical-light">
<path id="Vector" d="M9.5 7.27344C9.05963 7.27344 8.62915 7.40402 8.26299 7.64868C7.89683 7.89334 7.61145 8.24108 7.44293 8.64793C7.2744 9.05478 7.23031 9.50247 7.31622 9.93438C7.40213 10.3663 7.61419 10.763 7.92558 11.0744C8.23697 11.3858 8.63371 11.5979 9.06562 11.6838C9.49753 11.7697 9.94522 11.7256 10.3521 11.5571C10.7589 11.3886 11.1067 11.1032 11.3513 10.737C11.596 10.3709 11.7266 9.94037 11.7266 9.5C11.7266 8.90948 11.492 8.34315 11.0744 7.92558C10.6569 7.50802 10.0905 7.27344 9.5 7.27344ZM9.5 10.8359C9.23578 10.8359 8.97749 10.7576 8.75779 10.6108C8.5381 10.464 8.36687 10.2554 8.26576 10.0112C8.16464 9.76713 8.13819 9.49852 8.18973 9.23937C8.24128 8.98023 8.36852 8.74219 8.55535 8.55535C8.74218 8.36852 8.98023 8.24128 9.23937 8.18973C9.49852 8.13819 9.76713 8.16464 10.0112 8.26576C10.2554 8.36687 10.464 8.5381 10.6108 8.75779C10.7576 8.97749 10.8359 9.23578 10.8359 9.5C10.8359 9.85431 10.6952 10.1941 10.4447 10.4447C10.1941 10.6952 9.85431 10.8359 9.5 10.8359ZM9.5 5.78906C9.94037 5.78906 10.3709 5.65848 10.737 5.41382C11.1032 5.16916 11.3886 4.82142 11.5571 4.41457C11.7256 4.00772 11.7697 3.56003 11.6838 3.12812C11.5979 2.69621 11.3858 2.29947 11.0744 1.98808C10.763 1.67669 10.3663 1.46463 9.93438 1.37872C9.50247 1.29281 9.05478 1.3369 8.64793 1.50543C8.24108 1.67395 7.89334 1.95933 7.64868 2.32549C7.40402 2.69165 7.27344 3.12213 7.27344 3.5625C7.27344 4.15302 7.50802 4.71936 7.92558 5.13692C8.34315 5.55448 8.90948 5.78906 9.5 5.78906ZM9.5 2.22656C9.76422 2.22656 10.0225 2.30491 10.2422 2.45171C10.4619 2.5985 10.6331 2.80715 10.7342 3.05126C10.8354 3.29537 10.8618 3.56398 10.8103 3.82313C10.7587 4.08228 10.6315 4.32032 10.4447 4.50715C10.2578 4.69399 10.0198 4.82122 9.76063 4.87277C9.50148 4.92432 9.23287 4.89786 8.98876 4.79675C8.74465 4.69563 8.536 4.5244 8.38921 4.30471C8.24241 4.08501 8.16406 3.82672 8.16406 3.5625C8.16406 3.20819 8.30481 2.86839 8.55535 2.61785C8.80589 2.36731 9.14569 2.22656 9.5 2.22656ZM9.5 13.2109C9.05963 13.2109 8.62915 13.3415 8.26299 13.5862C7.89683 13.8308 7.61145 14.1786 7.44293 14.5854C7.2744 14.9923 7.23031 15.44 7.31622 15.8719C7.40213 16.3038 7.61419 16.7005 7.92558 17.0119C8.23697 17.3233 8.63371 17.5354 9.06562 17.6213C9.49753 17.7072 9.94522 17.6631 10.3521 17.4946C10.7589 17.3261 11.1067 17.0407 11.3513 16.6745C11.596 16.3084 11.7266 15.8779 11.7266 15.4375C11.7266 14.847 11.492 14.2806 11.0744 13.8631C10.6569 13.4455 10.0905 13.2109 9.5 13.2109ZM9.5 16.7734C9.23578 16.7734 8.97749 16.6951 8.75779 16.5483C8.5381 16.4015 8.36687 16.1929 8.26576 15.9487C8.16464 15.7046 8.13819 15.436 8.18973 15.1769C8.24128 14.9177 8.36852 14.6797 8.55535 14.4929C8.74218 14.306 8.98023 14.1788 9.23937 14.1272C9.49852 14.0757 9.76713 14.1021 10.0112 14.2033C10.2554 14.3044 10.464 14.4756 10.6108 14.6953C10.7576 14.915 10.8359 15.1733 10.8359 15.4375C10.8359 15.7918 10.6952 16.1316 10.4447 16.3822C10.1941 16.6327 9.85431 16.7734 9.5 16.7734Z" fill="white"/>
</g>
</svg>
