<svg width="24" height="24" viewBox="0 0 24 24" fill="none" xmlns="http://www.w3.org/2000/svg">
<g id="basil:comment-outline">
<path id="Vector" fill-rule="evenodd" clip-rule="evenodd" d="M4.592 15.304C2.344 9.787 6.403 3.75 12.36 3.75H12.681C13.7405 3.75 14.7896 3.95869 15.7685 4.36414C16.7473 4.7696 17.6368 5.36388 18.3859 6.11306C19.1351 6.86225 19.7294 7.75166 20.1349 8.73051C20.5403 9.70936 20.749 10.7585 20.749 11.818C20.749 14.2002 19.8027 16.4848 18.1182 18.1692C16.4338 19.8537 14.1492 20.8 11.767 20.8H3.947C3.79162 20.8001 3.64003 20.752 3.51319 20.6623C3.38634 20.5725 3.2905 20.4456 3.2389 20.2991C3.1873 20.1525 3.18249 19.9935 3.22515 19.8441C3.2678 19.6947 3.3558 19.5622 3.477 19.465L5.448 17.882C5.49014 17.8482 5.52022 17.8018 5.53374 17.7495C5.54726 17.6972 5.54349 17.642 5.523 17.592L4.592 15.304ZM12.36 5.25C7.467 5.25 4.134 10.207 5.98 14.738L6.912 17.027C7.054 17.3759 7.07961 17.7614 6.98503 18.126C6.89044 18.4907 6.68071 18.8151 6.387 19.051L6.078 19.3H11.767C13.7514 19.3 15.6544 18.5117 17.0576 17.1086C18.4607 15.7054 19.249 13.8023 19.249 11.818C19.249 10.0761 18.557 8.40546 17.3253 7.17372C16.0935 5.94198 14.4229 5.25 12.681 5.25H12.36Z" fill="#949494"/>
</g>
</svg>
