<svg width="32" height="32" viewBox="0 0 32 32" fill="none" xmlns="http://www.w3.org/2000/svg">
<g id="healthicons:ui-user-profile-outline">
<g id="Group">
<path id="Vector" fill-rule="evenodd" clip-rule="evenodd" d="M16 18C17.4145 18 18.771 17.4381 19.7712 16.4379C20.7714 15.4377 21.3333 14.0811 21.3333 12.6666C21.3333 11.2522 20.7714 9.8956 19.7712 8.89541C18.771 7.89522 17.4145 7.33331 16 7.33331C14.5855 7.33331 13.229 7.89522 12.2288 8.89541C11.2286 9.8956 10.6667 11.2522 10.6667 12.6666C10.6667 14.0811 11.2286 15.4377 12.2288 16.4379C13.229 17.4381 14.5855 18 16 18ZM16 16.6666C16.5253 16.6666 17.0454 16.5632 17.5307 16.3622C18.016 16.1611 18.457 15.8665 18.8284 15.4951C19.1999 15.1236 19.4945 14.6827 19.6955 14.1974C19.8965 13.7121 20 13.1919 20 12.6666C20 12.1414 19.8965 11.6212 19.6955 11.1359C19.4945 10.6506 19.1999 10.2097 18.8284 9.83822C18.457 9.46678 18.016 9.17215 17.5307 8.97113C17.0454 8.77011 16.5253 8.66665 16 8.66665C14.9391 8.66665 13.9217 9.08807 13.1716 9.83822C12.4214 10.5884 12 11.6058 12 12.6666C12 13.7275 12.4214 14.7449 13.1716 15.4951C13.9217 16.2452 14.9391 16.6666 16 16.6666Z" fill="white"/>
<path id="Vector_2" fill-rule="evenodd" clip-rule="evenodd" d="M29.3333 16C29.3333 23.364 23.364 29.3333 16 29.3333C8.636 29.3333 2.66666 23.364 2.66666 16C2.66666 8.63599 8.636 2.66666 16 2.66666C23.364 2.66666 29.3333 8.63599 29.3333 16ZM22.42 26.14C20.5006 27.3584 18.2734 28.0036 16 28C13.6723 28.0036 11.3943 27.327 9.446 26.0533C9.286 25.8533 9.12333 25.6467 8.95933 25.4333C8.76878 25.1834 8.66592 24.8776 8.66666 24.5633C8.66666 23.8453 9.18266 23.2433 9.87266 23.1427C14.436 22.476 17.578 22.5333 22.1473 23.166C22.4782 23.214 22.7806 23.38 22.9986 23.6336C23.2166 23.8871 23.3355 24.211 23.3333 24.5453C23.3333 24.8653 23.2233 25.176 23.0247 25.4187C22.82 25.668 22.618 25.9087 22.42 26.14ZM24.6567 24.3107C24.55 23.0627 23.6027 22.0213 22.33 21.8453C17.6527 21.198 14.3833 21.136 9.68 21.8233C8.4 22.01 7.45666 23.0607 7.34466 24.312C5.19488 22.0794 3.99576 19.0994 4 16C4 9.37266 9.37266 3.99999 16 3.99999C22.6273 3.99999 28 9.37266 28 16C28.0042 19.0987 26.8056 22.0782 24.6567 24.3107Z" fill="white"/>
</g>
</g>
</svg>
