<svg width="28" height="27" viewBox="0 0 28 27" fill="none" xmlns="http://www.w3.org/2000/svg">
<path d="M4.813 0L3.405 1.406L5.5 3.5L6.906 2.094L4.812 0H4.813ZM23.188 0L21.093 2.094L22.5 3.5L24.594 1.407L23.188 0ZM14 0.624C13.67 0.628 13.336 0.647 13 0.688C12.99 0.688 12.98 0.686 12.97 0.688C8.914 1.153 5.686 4.43 5.125 8.468C4.677 11.718 6.017 14.665 8.25 16.563C9.16341 17.3425 9.78123 18.4123 10 19.593V25.593H12.28C12.628 26.19 13.263 26.593 14 26.593C14.737 26.593 15.372 26.19 15.72 25.593H18V21.593H18.094V20.405C18.094 18.939 18.856 17.461 20.094 16.312C21.75 14.654 23 12.299 23 9.594C23 4.654 18.934 0.578 14 0.624ZM14 2.624C17.865 2.57 21 5.734 21 9.594C21 11.688 20.03 13.532 18.687 14.874L18.719 14.906C17.3844 16.1367 16.5214 17.7948 16.279 19.594H11.905C11.685 17.88 10.95 16.221 9.561 15.031C7.794 13.531 6.741 11.271 7.093 8.719C7.53 5.569 10.086 3.036 13.218 2.689C13.4766 2.65295 13.737 2.63158 13.998 2.625L14 2.624ZM0 9.594V11.594H3V9.594H0ZM25 9.594V11.594H28V9.594H25ZM5.5 17.688L3.406 19.781L4.813 21.188L6.905 19.094L5.5 17.688ZM22.5 17.688L21.094 19.094L23.187 21.188L24.594 19.781L22.5 17.688ZM12 21.594H16V23.594H12V21.594Z" fill="white"/>
</svg>
